<?xml version="1.0" standalone="no"?>
<!DOCTYPE svg PUBLIC "-//W3C//DTD SVG 20010904//EN"
 "http://www.w3.org/TR/2001/REC-SVG-20010904/DTD/svg10.dtd">
<svg version="1.0" xmlns="http://www.w3.org/2000/svg"
 width="512.000000pt" height="512.000000pt" viewBox="0 0 512.000000 512.000000"
 preserveAspectRatio="xMidYMid meet">
<metadata>
Created by potrace 1.14, written by Peter Selinger 2001-2017
</metadata>
<g transform="translate(0.000000,512.000000) scale(0.100000,-0.100000)"
fill="#000000" stroke="none">
<path d="M0 2560 l0 -2560 2560 0 2560 0 0 2560 0 2560 -2560 0 -2560 0 0
-2560z m1940 2236 c59 -15 113 -32 145 -47 11 -4 45 -18 75 -29 30 -11 64 -25
75 -30 11 -5 54 -18 95 -30 267 -77 369 -133 394 -215 10 -35 -7 -110 -26
-110 -10 0 -27 -14 -40 -31 -13 -17 -43 -50 -67 -74 l-45 -43 61 7 61 7 39
-45 c23 -26 46 -67 56 -100 17 -52 17 -59 3 -88 -9 -17 -16 -39 -16 -50 0 -15
-5 -17 -25 -12 -18 5 -25 2 -25 -9 0 -8 6 -18 13 -21 6 -3 0 -3 -15 0 -16 4
-28 2 -28 -3 0 -5 -27 -26 -60 -47 -58 -37 -130 -106 -130 -125 0 -13 -119
-134 -154 -156 -45 -29 -178 -73 -316 -105 -69 -15 -153 -35 -186 -44 -34 -9
-82 -16 -106 -16 -24 0 -54 -7 -66 -16 l-23 -16 97 -98 c54 -54 101 -105 104
-112 13 -23 20 -517 9 -648 -5 -69 -16 -235 -24 -370 -8 -135 -19 -283 -26
-330 -21 -164 -60 -385 -75 -433 -20 -59 -9 -77 34 -61 15 6 40 7 57 3 16 -5
30 -7 30 -6 1 1 15 22 32 47 16 25 60 106 96 180 37 74 73 144 79 155 7 11 26
43 42 70 17 28 56 85 89 128 38 51 53 77 42 77 -8 0 -15 -4 -15 -10 0 -5 -7
-10 -15 -10 -8 0 -15 2 -15 6 0 9 299 304 308 304 8 0 27 14 72 52 43 38 252
138 287 138 10 0 23 4 28 9 6 5 42 15 80 21 39 6 95 15 125 20 74 11 322 11
390 -1 30 -6 82 -13 115 -17 33 -4 67 -11 75 -17 8 -5 32 -12 55 -16 40 -7 82
-20 142 -46 17 -7 35 -13 40 -13 12 0 186 -91 193 -100 3 -4 15 -10 28 -14 12
-4 22 -12 22 -17 0 -5 7 -9 15 -9 7 0 18 -6 22 -13 4 -8 15 -17 23 -20 28 -13
54 -32 95 -72 23 -22 63 -58 91 -80 58 -47 204 -194 204 -205 0 -5 18 -27 40
-50 22 -23 43 -53 46 -66 3 -13 10 -24 14 -24 4 0 18 -19 31 -42 12 -24 28
-54 35 -68 8 -14 14 -33 14 -42 0 -9 5 -20 10 -23 6 -3 10 -19 10 -34 0 -15 7
-36 15 -47 11 -14 14 -50 14 -149 0 -99 -3 -135 -14 -149 -8 -11 -15 -30 -15
-42 0 -12 -6 -35 -14 -51 -8 -15 -22 -45 -32 -65 -20 -41 -44 -51 -44 -18 0
12 7 20 16 20 12 0 15 7 11 25 -3 17 1 30 13 38 12 9 16 22 12 50 -5 44 -17
48 -25 8 -8 -37 -65 -132 -109 -179 -41 -43 -117 -112 -125 -112 -3 0 -22 -13
-43 -30 -21 -17 -45 -30 -53 -30 -9 0 -19 -4 -22 -10 -3 -5 -41 -26 -83 -45
-42 -20 -85 -40 -94 -46 -10 -5 -24 -9 -32 -9 -7 0 -19 -7 -26 -15 -7 -8 -22
-15 -34 -15 -11 0 -30 -7 -40 -15 -11 -8 -29 -15 -40 -15 -12 0 -30 -7 -40
-15 -11 -8 -31 -15 -45 -15 -14 0 -35 -7 -45 -15 -11 -8 -28 -15 -38 -15 -11
0 -58 -11 -106 -25 -116 -32 -369 -85 -409 -85 -17 0 -44 -5 -59 -10 -15 -6
-50 -13 -78 -15 -28 -2 -107 -11 -176 -19 -121 -14 -215 -20 -480 -31 -201 -8
-505 15 -735 56 -150 27 -534 27 -830 0 -103 -10 -129 -9 -185 5 -79 20 -107
33 -143 72 -26 27 -28 37 -35 138 l-7 109 -6 -91 c-8 -107 -17 -144 -30 -123
-14 23 -10 185 5 226 8 21 16 75 19 121 2 45 9 88 15 94 8 8 12 60 12 153 1
77 5 174 11 215 6 41 14 165 18 274 5 142 10 201 19 204 8 2 12 28 12 73 0 39
7 85 15 106 8 19 15 52 15 72 1 20 7 47 15 61 8 14 15 41 15 60 0 19 7 44 15
54 8 11 15 31 15 45 0 14 7 35 15 45 8 11 15 30 15 42 0 12 7 35 15 50 8 16
15 37 15 46 0 9 4 19 9 23 5 3 13 20 17 37 3 18 10 39 15 48 18 35 39 84 39
92 0 9 33 90 49 118 5 9 12 30 15 48 4 17 12 34 17 37 5 4 9 16 9 29 0 12 7
31 15 42 8 10 15 30 15 44 0 14 7 38 15 54 8 15 15 40 15 55 0 15 7 36 15 47
8 10 15 32 15 47 0 16 6 43 14 60 8 18 17 52 19 77 3 24 11 46 16 48 6 2 11
28 11 57 0 34 5 59 15 69 9 9 15 33 15 63 0 51 11 79 28 69 7 -4 8 14 5 53 -3
33 -2 72 2 88 6 27 7 27 21 8 14 -18 15 -9 8 87 -6 99 0 187 13 175 3 -4 9
-21 14 -39 5 -21 7 5 3 73 -4 88 -2 108 10 119 9 7 16 20 16 30 0 10 7 23 15
30 8 7 15 16 15 21 0 11 78 129 95 144 15 14 125 161 159 215 51 78 138 157
192 174 61 18 95 19 164 2z m127 -1452 c-3 -3 -12 -4 -19 -1 -8 3 -5 6 6 6 11
1 17 -2 13 -5z m-90 -30 c-3 -3 -12 -4 -19 -1 -8 3 -5 6 6 6 11 1 17 -2 13 -5z
m-78 -366 c-2 -213 -15 -192 -18 27 -2 116 3 165 15 165 2 0 3 -87 3 -192z
m-29 -1108 l-5 -75 -7 70 c-10 91 -10 273 0 316 9 44 19 -205 12 -311z m300
70 c0 -5 -7 -10 -15 -10 -8 0 -15 5 -15 10 0 6 7 10 15 10 8 0 15 -4 15 -10z
m-60 -85 c0 -8 -7 -15 -15 -15 -8 0 -15 -7 -15 -15 0 -15 -12 -20 -23 -9 -7 7
33 54 46 54 4 0 7 -7 7 -15z m-60 -83 c0 -13 -12 -22 -22 -16 -10 6 -1 24 13
24 5 0 9 -4 9 -8z m-30 -31 c0 -6 -4 -13 -10 -16 -5 -3 -10 1 -10 9 0 9 5 16
10 16 6 0 10 -4 10 -9z m-172 -136 c0 -27 -3 -61 -7 -75 -6 -20 -9 -12 -15 37
-9 70 1 142 15 108 4 -11 7 -42 7 -70z m142 77 c0 -13 -12 -22 -22 -16 -10 6
-1 24 13 24 5 0 9 -4 9 -8z m-30 -57 c0 -8 -4 -15 -10 -15 -5 0 -10 7 -10 15
0 8 5 15 10 15 6 0 10 -7 10 -15z m-30 -60 c0 -8 -4 -15 -10 -15 -5 0 -10 7
-10 15 0 8 5 15 10 15 6 0 10 -7 10 -15z m-30 -60 c0 -8 -4 -15 -10 -15 -5 0
-10 7 -10 15 0 8 5 15 10 15 6 0 10 -7 10 -15z m-30 -57 c0 -19 -31 -47 -46
-41 -12 4 -10 10 8 28 26 26 38 30 38 13z m2820 -496 c0 -23 -126 -142 -151
-142 -10 0 -19 -7 -19 -15 0 -8 -6 -15 -14 -15 -8 0 -16 -7 -20 -15 -6 -17
-32 -20 -41 -4 -4 6 2 13 13 16 11 3 23 11 26 19 3 8 12 14 21 14 8 0 15 4 15
9 0 5 9 13 21 16 24 8 59 40 59 55 0 6 5 10 10 10 15 0 47 35 55 59 7 24 25
19 25 -7z m-260 -217 c0 -8 -6 -15 -14 -15 -8 0 -16 -7 -20 -15 -3 -8 -16 -15
-30 -15 -13 0 -26 -7 -30 -15 -3 -8 -15 -15 -26 -15 -11 0 -23 -7 -26 -15 -4
-8 -16 -15 -29 -15 -12 0 -28 -7 -35 -15 -7 -8 -21 -15 -32 -15 -11 0 -26 -7
-34 -15 -18 -18 -50 -20 -60 -4 -9 15 16 30 38 23 11 -3 21 3 28 16 8 15 18
20 31 17 12 -3 23 2 29 13 6 12 17 16 30 13 12 -3 22 1 26 11 3 9 17 16 30 16
14 0 27 7 30 15 4 8 17 15 30 15 15 0 24 6 24 15 0 8 9 15 20 15 11 0 20 -7
20 -15z m-352 -172 c-2 -10 -14 -20 -28 -21 -13 -2 -33 -10 -44 -18 -11 -8
-31 -14 -44 -14 -13 0 -30 -7 -39 -16 -9 -9 -28 -14 -45 -12 -16 2 -32 -3 -37
-11 -12 -19 -86 -21 -86 -1 0 10 13 16 40 18 22 2 44 10 48 18 5 8 24 14 46
14 25 0 41 5 45 15 3 9 18 15 40 15 21 0 36 6 40 15 3 9 18 15 36 15 25 0 31
-4 28 -17z m-3468 -70 c0 -20 -3 -24 -11 -16 -7 7 -9 19 -6 27 10 24 17 19 17
-11z m30 -49 c0 -8 -4 -12 -10 -9 -5 3 -10 10 -10 16 0 5 5 9 10 9 6 0 10 -7
10 -16z m3095 6 c8 -13 -17 -23 -61 -24 -19 -1 -38 -6 -42 -12 -14 -23 -112
-21 -112 1 0 12 13 15 60 15 47 0 60 3 60 15 0 11 12 15 44 15 25 0 48 -5 51
-10z m-3065 -30 c0 -5 -4 -10 -10 -10 -5 0 -10 5 -10 10 0 6 5 10 10 10 6 0
10 -4 10 -10z m80 -29 c0 -5 -6 -11 -12 -14 -18 -6 -39 3 -32 14 7 12 44 12
44 0z m2758 -3 c-5 -14 -99 -24 -125 -14 -32 12 2 26 63 26 48 0 65 -3 62 -12z
m-1708 -33 c-5 -10 -937 -18 -992 -8 -16 2 -28 9 -28 14 0 6 202 8 513 7 337
-2 510 -6 507 -13z m1570 6 c0 -15 -28 -21 -96 -21 -50 0 -64 3 -64 15 0 12
16 15 80 15 44 0 80 -4 80 -9z m-1320 -36 c0 -12 -18 -15 -99 -15 -101 0 -131
5 -131 21 0 5 52 9 115 9 96 0 115 -3 115 -15z m1138 3 c-3 -9 -34 -13 -108
-13 -74 0 -105 4 -107 13 -4 9 22 12 107 12 85 0 111 -3 108 -12z m-240 -23
c19 -19 -87 -25 -444 -25 -298 0 -401 3 -417 13 -19 10 -8 13 83 18 116 7 770
2 778 -6z"/>
<path d="M1930 4406 c0 -2 9 -23 20 -47 13 -30 20 -66 20 -111 0 -39 4 -68 10
-68 6 0 10 11 10 25 0 33 25 81 45 89 45 17 100 -7 155 -66 l29 -33 1 31 c0
17 9 43 20 57 11 14 20 27 20 29 0 2 -31 4 -69 4 -80 1 -160 26 -212 66 -35
26 -49 33 -49 24z"/>
<path d="M1967 4137 c-3 -9 -25 -26 -49 -38 l-43 -22 35 -15 c24 -10 52 -12
90 -8 69 8 82 21 36 36 -21 7 -42 23 -50 37 -10 21 -14 22 -19 10z"/>
<path d="M2260 2000 c0 -5 5 -10 10 -10 6 0 10 5 10 10 0 6 -4 10 -10 10 -5 0
-10 -4 -10 -10z"/>
<path d="M2230 1970 c0 -5 5 -10 10 -10 6 0 10 5 10 10 0 6 -4 10 -10 10 -5 0
-10 -4 -10 -10z"/>
<path d="M651 1293 c1 -38 5 -95 9 -128 6 -51 7 -40 9 68 0 79 -3 127 -9 127
-6 0 -10 -28 -9 -67z"/>
<path d="M4750 1211 c0 -23 5 -41 10 -41 6 0 10 15 10 34 0 19 -4 38 -10 41
-6 4 -10 -10 -10 -34z"/>
<path d="M632 890 c0 -19 2 -27 5 -17 2 9 2 25 0 35 -3 9 -5 1 -5 -18z"/>
</g>
</svg>
